# xmcd CD database file
#
# Track frame offsets:
#	150
#	25610
#	46992
#
# Disc length: 908 seconds
#
# Revision: 0
# Processed by: cddbd v1.5.1PL2 Copyright (c) Steve Scherf et al.
# Submitted via: CDex 1.51
#
DISCID=18038a03
DTITLE=azumi - FLY
DYEAR=2006
DGENRE=JPop
TTITLE0=FLY
TTITLE1=さよならの向こうで
TTITLE2=この街で
EXTD=YEAR: 2006
EXTT0=
EXTT1=
EXTT2=
PLAYORDER=
